<?xml version="1.0" encoding="UTF-8" standalone="no"?>
<!-- Created with Inkscape (http://www.inkscape.org/) -->

<svg
   width="210mm"
   height="297mm"
   viewBox="0 0 210 297"
   version="1.1"
   id="svg67507"
   inkscape:version="1.1.1 (3bf5ae0d25, 2021-09-20)"
   sodipodi:docname="ten_zielony.svg"
   xmlns:inkscape="http://www.inkscape.org/namespaces/inkscape"
   xmlns:sodipodi="http://sodipodi.sourceforge.net/DTD/sodipodi-0.dtd"
   xmlns="http://www.w3.org/2000/svg"
   xmlns:svg="http://www.w3.org/2000/svg">
  <sodipodi:namedview
     id="namedview67509"
     pagecolor="#505050"
     bordercolor="#ffffff"
     borderopacity="1"
     inkscape:pageshadow="0"
     inkscape:pageopacity="0"
     inkscape:pagecheckerboard="1"
     inkscape:document-units="mm"
     showgrid="false"
     inkscape:zoom="0.70710678"
     inkscape:cx="-318.19805"
     inkscape:cy="72.831999"
     inkscape:window-width="3840"
     inkscape:window-height="2081"
     inkscape:window-x="2391"
     inkscape:window-y="-9"
     inkscape:window-maximized="1"
     inkscape:current-layer="layer1" />
  <defs
     id="defs67504">
    <pattern
       id="EMFhbasepattern"
       patternUnits="userSpaceOnUse"
       width="6"
       height="6"
       x="0"
       y="0" />
  </defs>
  <g
     inkscape:label="Layer 1"
     id="layer1"
     inkscape:groupmode="layer">
    <g
       id="g866"
       inkscape:label="znak"
       transform="matrix(5.1597804,0,0,5.1597804,-508.25509,-180.86063)">
      <g
         id="g117396"
         inkscape:label="tlo">
        <rect
           style="fill:#000000;fill-rule:evenodd;stroke:none;stroke-width:0.259654"
           id="rect67694"
           width="34.162571"
           height="34.176956"
           x="101.7287"
           y="46.3591"
           ry="1.0365216"
           inkscape:label="czarny kwadrat" />
        <rect
           style="fill:#ffffff;fill-rule:evenodd;stroke:none;stroke-width:0.262868"
           id="rect68011"
           width="34.073353"
           height="34.041298"
           x="101.77331"
           y="46.426929"
           ry="1.0276399"
           inkscape:label="bialy kwadrat" />
        <rect
           style="fill:#000000;fill-rule:evenodd;stroke:none;stroke-width:0.265525"
           id="rect68133"
           width="33.453251"
           height="33.600971"
           x="102.08336"
           y="46.647091"
           ry="0.98236567"
           inkscape:label="czarny kwadrat2" />
        <rect
           style="fill:#ffffff;fill-rule:evenodd;stroke:none;stroke-width:0.263621"
           id="rect68399"
           width="32.793137"
           height="32.822369"
           x="102.41342"
           y="47.036392"
           ry="0.53093153"
           inkscape:label="bialy kwadrat2" />
        <ellipse
           style="fill:#27715c;fill-opacity:1;fill-rule:evenodd;stroke:none;stroke-width:0.23344"
           id="path68645"
           cx="118.78965"
           cy="66.579948"
           rx="11.319205"
           ry="11.381217"
           inkscape:label="zielone kolko" />
        <ellipse
           style="fill:#ffffff;fill-rule:evenodd;stroke:none;stroke-width:0.232782"
           id="path68803"
           cx="118.78965"
           cy="66.579948"
           rx="9.1446609"
           ry="9.1281252"
           inkscape:label="biale kolko" />
      </g>
      <g
         id="g7803"
         transform="translate(0,34.925016)"
         inkscape:label="samochod">
        <path
           style="fill:#27715c;fill-opacity:1;stroke:none;stroke-width:0.264583px;stroke-linecap:butt;stroke-linejoin:miter;stroke-opacity:1"
           d="m 113.7616,26.554898 -0.59634,3.110349 -0.53788,0.491106 -0.0351,5.448959 0.54957,0.0117 v 1.73057 l 1.62534,0.01169 0.0234,-1.672106 7.98635,-0.02339 0.0234,1.672106 1.6838,0.02339 -0.0351,-1.718879 0.54957,-0.01169 0.0351,-5.402186 -0.47941,-0.514493 -0.6782,-3.133736 c 0,0 -4.09256,-0.666504 -10.11448,-0.02339 z"
           id="path7215"
           inkscape:label="rama" />
        <ellipse
           style="fill:#ffffff;fill-opacity:1;fill-rule:evenodd;stroke:none;stroke-width:0.314768;stroke-opacity:1"
           id="path7395-5"
           cx="123.63054"
           cy="31.688143"
           rx="0.8652851"
           ry="0.86528504" />
        <ellipse
           style="fill:#ffffff;fill-opacity:1;fill-rule:evenodd;stroke:none;stroke-width:0.314768;stroke-opacity:1"
           id="path7395"
           cx="113.97208"
           cy="31.676445"
           rx="0.8652851"
           ry="0.86528504" />
        <rect
           style="fill:#ffffff;fill-opacity:1;fill-rule:evenodd;stroke:none;stroke-width:0.264999;stroke-opacity:1"
           id="rect7579"
           width="11.389023"
           height="0.64311916"
           x="113.11848"
           y="33.336861" />
        <path
           style="fill:#ffffff;fill-opacity:1;stroke:none;stroke-width:0.264583px;stroke-linecap:butt;stroke-linejoin:miter;stroke-opacity:1"
           d="m 114.45149,27.092777 -0.39756,2.303529 h 9.49475 l -0.36249,-2.303529 z"
           id="path7614" />
      </g>
      <g
         id="g117406"
         inkscape:label="napis">
        <path
           d="m 112.82788,51.58447 -0.80292,-0.439141 c -0.16326,-0.08886 -0.29324,-0.209053 -0.38852,-0.360586 -0.0957,-0.151531 -0.14383,-0.31637 -0.14383,-0.494087 0,-0.271727 0.0669,-0.541597 0.27544,-0.735197 0.19068,-0.289566 0.49426,-0.329257 0.78926,-0.323259 0.35964,0.0073 0.80711,0.06597 1.03519,0.160704 l -0.1571,0.564375 c -0.29879,-0.06267 -0.61353,-0.08988 -0.87809,-0.08988 -0.1295,0 -0.2382,0.04078 -0.32515,0.121482 -0.0875,0.08113 -0.12262,0.16091 -0.12262,0.281105 0,0.162264 0.10894,0.282459 0.26109,0.361014 l 0.76159,0.459813 c 0.17437,0.09401 0.31404,0.223649 0.41811,0.388059 0.10407,0.164839 0.10672,0.352111 0.10672,0.545711 0,0.292762 -0.0632,0.535616 -0.28848,0.744669 -0.22525,0.209053 -0.49582,0.355136 -0.81126,0.355136 -0.38851,0 -0.89874,-0.05807 -1.27756,-0.198565 l 0.19355,-0.553711 c 0.32654,0.0837 0.74592,0.146018 1.08401,0.146018 0.15216,0 0.28028,-0.04808 0.38435,-0.145093 0.10407,-0.09659 0.11084,-0.211358 0.11084,-0.352588 5.3e-4,-0.188878 -0.0442,-0.336817 -0.22462,-0.435977 z"
           id="path46"
           style="stroke-width:0.0445581"
           sodipodi:nodetypes="cccscsccscscccsssccsccsc"
           inkscape:label="s" />
        <path
           d="m 115.444,49.238412 v 0 l -0.0165,1.289832 0.50896,0.0041 v 0.575273 l -0.48828,0.02067 -0.0165,0.948528 c 0.0207,0.104362 0.0265,0.180922 0.0755,0.230537 0.049,0.04961 0.13024,0.09752 0.24357,0.144568 l 0.28097,0.0057 -0.24221,0.596221 c -0.23682,0 -0.52586,-0.121613 -0.70093,-0.298683 -0.17507,-0.177074 -0.24194,-0.428137 -0.24194,-0.677921 l -0.0207,-0.948494 -0.48002,-0.02067 -0.004,-0.571139 0.47175,-0.0041 4e-5,-0.65329 z"
           id="path48"
           style="stroke-width:0.042529"
           sodipodi:nodetypes="cccccccccccsscccccc"
           inkscape:label="t" />
        <path
           style="fill:#000000;fill-opacity:1;stroke:none;stroke-width:0.264583px;stroke-linecap:butt;stroke-linejoin:miter;stroke-opacity:1"
           d="m 116.77841,50.511847 v 2.554929 l 0.59342,-0.01754 0.009,-1.637025 0.055,-0.07695 0.13092,-0.115465 0.2061,-0.06342 0.2106,-0.04508 0.004,-0.589203 c -0.17806,-0.02457 -0.35184,0.04176 -0.52444,0.118381 -0.0702,-0.03898 -0.0585,-0.139698 -0.12862,-0.137394 z"
           id="path53376"
           sodipodi:nodetypes="cccccccccccc"
           inkscape:label="r" />
        <g
           id="g59299"
           inkscape:label="e"
           transform="translate(0,34.925016)">
          <path
             style="fill:#000000;fill-opacity:1;stroke:none;stroke-width:0.264583px;stroke-linecap:butt;stroke-linejoin:miter;stroke-opacity:1"
             d="m 120.84017,17.520377 -0.31212,0.615984 -0.92812,0.06201 c -0.22514,-0.05789 -0.41672,-0.188499 -0.59531,-0.347265 -0.1654,-0.175092 -0.3212,-0.355781 -0.39446,-0.584623 -0.0955,-0.214764 -0.0789,-0.596957 -0.0122,-0.827177 0.13819,-0.317058 0.18707,-0.382853 0.21861,-0.43819 0.0987,-0.0904 0.19015,-0.193341 0.30305,-0.258806 0.0834,-0.06525 0.16803,-0.123525 0.25913,-0.146364 l 0.0798,-0.02248 0.0669,-0.01886 c 0.1827,-0.0438 0.37874,-0.06399 0.61185,-0.0186 0.21873,0.007 0.36536,0.10533 0.52916,0.181901 l 0.33073,0.33073 0.008,1.050065 c -0.58983,9.35e-4 -1.22227,-0.0082 -1.76837,0.0031 0.0219,0.08442 0.0202,0.157972 0.0713,0.229444 0.0551,0.04513 0.10508,0.09287 0.1602,0.132292 0.0648,0.04615 0.0932,0.08707 0.28836,0.122989 h 0.28112 z"
             id="path54365"
             sodipodi:nodetypes="ccccccccccccccccccccc" />
          <path
             style="fill:#ffffff;fill-opacity:1;stroke:none;stroke-width:0.264583px;stroke-linecap:butt;stroke-linejoin:miter;stroke-opacity:1"
             d="m 119.22786,16.59847 c -0.006,0.03077 -0.0141,0.06203 0.0682,0.05788 l 1.21956,0.0041 c 0.0864,0.0065 0.0706,-0.03366 0.0703,-0.07235 -0.008,-0.05168 -0.0281,-0.08862 -0.0496,-0.124024 -0.0356,-0.06722 -0.0952,-0.117261 -0.14883,-0.171565 -0.0504,-0.04473 -0.11873,-0.07869 -0.1819,-0.115756 -0.0609,-0.03068 -0.13301,-0.04181 -0.20464,-0.05374 h -0.22531 c -0.0727,0.01672 -0.1283,0.04374 -0.1881,0.06821 -0.13935,0.07961 -0.13143,0.08946 -0.1757,0.124023 -0.0461,0.03632 -0.0922,0.07316 -0.13022,0.136426 -0.022,0.04286 -0.0427,0.08763 -0.0538,0.146796 z"
             id="path58010"
             sodipodi:nodetypes="ccccccccccccc" />
        </g>
        <path
           style="fill:#000000;fill-opacity:1;stroke:none;stroke-width:0.264583px;stroke-linecap:butt;stroke-linejoin:miter;stroke-opacity:1"
           d="m 121.99333,51.186586 0.0206,1.859727 0.62266,0.01462 v -1.870891 c 0.0263,-0.03476 0.0526,-0.05711 0.0789,-0.06431 l 0.35079,0.01462 c 0.0219,-0.0084 0.0295,-0.0309 0.038,-0.05262 v -0.505724 c -0.0132,-0.04758 -0.0344,-0.04312 -0.0526,-0.05846 l -0.3654,-0.0058 c -0.0427,-0.02447 -0.0473,-0.07438 -0.0585,-0.119854 0.007,-0.05639 0.0262,-0.106773 0.0497,-0.154933 0.0327,-0.06883 0.0654,-0.137565 0.11694,-0.192935 0.0588,-0.05914 0.12331,-0.10906 0.19586,-0.146163 0.0883,-0.04033 0.17921,-0.06193 0.27017,-0.08341 l 0.005,-0.533391 c 6.4e-4,-0.03819 -0.014,-0.06262 -0.0409,-0.07601 -0.15201,0.02784 -0.30401,0.05565 -0.45602,0.102314 -0.0903,0.03508 -0.17526,0.102163 -0.26017,0.169549 -0.0998,0.07768 -0.19376,0.160584 -0.26894,0.260171 -0.0567,0.100341 -0.11164,0.200963 -0.15201,0.304019 -0.037,0.0647 -0.0517,0.137735 -0.0672,0.210474 v 0.15201 c -0.0128,0.03902 -0.0156,0.07991 -0.0702,0.111084 l -0.33617,-0.01169 c -0.037,0.0098 -0.0724,0.02095 -0.0877,0.04969 l -0.003,0.532034 c 0.0162,0.01332 0.0294,0.02908 0.0614,0.02923 l 0.3824,0.01322 c 0.034,0.0023 0.0163,0.03248 0.0268,0.05343 z"
           id="path59513"
           sodipodi:nodetypes="cccccccccccccccccccccccccccccc"
           inkscape:label="f" />
        <path
           d="m 123.96359,52.699994 c -0.25383,-0.251399 -0.36835,-0.548045 -0.36835,-0.898208 0,-0.349715 0.11452,-0.655078 0.36835,-0.906479 0.25385,-0.251398 0.52779,-0.377547 0.82283,-0.377547 0.29454,0 0.54695,0.06015 0.75672,0.18047 v -0.18047 l 0.6365,0.01033 -0.004,1.937841 0.14138,0.598755 -0.5831,-0.0083 -0.0944,-0.225341 c -0.2275,0.163858 -0.5005,0.246012 -0.81805,0.246012 -0.31849,4.41e-4 -0.60439,-0.125253 -0.85775,-0.3771 z m 0.45501,-1.394366 c -0.12819,0.12761 -0.1893,0.257221 -0.18823,0.492024 7.5e-4,0.165629 0.0572,0.331326 0.19443,0.477554 0.12548,0.131086 0.2662,0.17446 0.45842,0.173892 0.19103,-5.64e-4 0.39214,-0.09675 0.47908,-0.184228 0.14211,-0.142967 0.19735,-0.272062 0.19856,-0.467218 10e-4,-0.197075 -0.0628,-0.360938 -0.18822,-0.492024 -0.23427,-0.167351 -0.34905,-0.189662 -0.47702,-0.197079 -0.1526,0.01124 -0.31481,0.06068 -0.47702,0.197079 z"
           id="path56"
           style="stroke-width:0.0463691"
           sodipodi:nodetypes="csssccccccccccscssscccs"
           inkscape:label="a" />
      </g>
    </g>
  </g>
</svg>
